name analog
datacolumns 19
datarows 32
range 0.2165 0.232
endheader
time	ground_force_vx	ground_force_vy	ground_force_vz	ground_force_px	ground_force_py	ground_force_pz	l_ground_force_vx	l_ground_force_vy	l_ground_force_vz	l_ground_force_px	l_ground_force_py	l_ground_force_pz	ground_torque_x	ground_torque_y	ground_torque_z	l_ground_torque_x	l_ground_torque_y	l_ground_torque_z
0.2165	-0.0	-0.0	-0.0	0.356842041015625	37.03767776489258	-394.7908630371094	12.701868057250977	-31.627241134643555	-381.6546630859375	-0.0	-0.0	-0.0	-0.0	-0.0	-0.0	103698.765625	714.8768920898438	-2283.130615234375
0.217	-0.0	-0.0	-0.0	0.2918832302093506	36.5027961730957	-392.22174072265625	12.290541648864746	-31.18559455871582	-383.11468505859375	-0.0	-0.0	-0.0	-0.0	-0.0	-0.0	104377.4921875	607.7054443359375	-2110.727783203125
0.2175	-0.0	-0.0	-0.0	0.1703618913888931	36.35715103149414	-394.6318359375	12.782403945922852	-31.201602935791016	-384.38427734375	-0.0	-0.0	-0.0	-0.0	-0.0	-0.0	104475.28125	603.4346313476562	-2247.9169921875
0.218	-0.0	-0.0	-0.0	0.3648634850978851	35.98463821411133	-392.5417175292969	13.331220626831056	-31.193511962890625	-383.4631042480469	-0.0	-0.0	-0.0	-0.0	-0.0	-0.0	104636.375	1046.2296142578125	-2002.0106201171875
0.2185	-0.0	-0.0	-0.0	0.4620200395584106	35.9195556640625	-393.3160095214844	13.11324405670166	-31.474285125732425	-385.20843505859375	-0.0	-0.0	-0.0	-0.0	-0.0	-0.0	104556.8046875	944.5250244140624	-2126.477783203125
0.219	-0.0	-0.0	-0.0	0.3806827366352081	35.79072189331055	-390.49114990234375	13.024606704711914	-31.54665184020996	-386.4483642578125	-0.0	-0.0	-0.0	-0.0	-0.0	-0.0	105011.8984375	1151.7783203125	-2253.216796875
0.2195	-0.0	-0.0	-0.0	0.6086375117301941	35.31937026977539	-388.6860046386719	13.040485382080078	-31.882442474365234	-386.6665344238281	-0.0	-0.0	-0.0	-0.0	-0.0	-0.0	105078.9609375	1088.29833984375	-2275.01904296875
0.22	-0.0	-0.0	-0.0	-0.0892105102539062	35.214385986328125	-389.7858581542969	12.68564224243164	-32.18044662475586	-389.3350524902344	-0.0	-0.0	-0.0	-0.0	-0.0	-0.0	105445.0546875	1308.4151611328125	-2328.7431640625
0.2205	-0.0	-0.0	-0.0	-0.406839370727539	35.02825164794922	-389.68170166015625	12.523892402648926	-32.824462890625	-389.1498718261719	-0.0	-0.0	-0.0	-0.0	-0.0	-0.0	105715.4140625	1373.0849609375	-2588.0625
0.221	-0.0	-0.0	-0.0	-0.8686612248420715	35.44266891479492	-392.9964904785156	11.99937915802002	-32.67124938964844	-390.3822326660156	-0.0	-0.0	-0.0	-0.0	-0.0	-0.0	105814.609375	1741.3602294921875	-2825.680908203125
0.2215	-0.0	-0.0	-0.0	-1.2141751050949097	34.764522552490234	-392.09130859375	11.790763854980469	-33.28180694580078	-391.4295654296875	-0.0	-0.0	-0.0	-0.0	-0.0	-0.0	106546.296875	1634.1771240234375	-2771.815185546875
0.222	-0.0	-0.0	-0.0	-1.5011001825332642	34.3538703918457	-393.9036865234375	11.7020902633667	-33.36249923706055	-392.2190246582031	-0.0	-0.0	-0.0	-0.0	-0.0	-0.0	106694.9140625	1990.9931640625	-2828.578369140625
0.2225	-0.0	-0.0	-0.0	-1.7104222774505615	34.64091110229492	-394.4714965820313	11.709823608398438	-33.21662521362305	-395.1789855957031	-0.0	-0.0	-0.0	-0.0	-0.0	-0.0	107007.5859375	1964.443603515625	-3018.111572265625
0.223	-0.0	-0.0	-0.0	-2.451852798461914	34.36600112915039	-394.1184387207031	11.208229064941406	-33.40086364746094	-395.2396240234375	-0.0	-0.0	-0.0	-0.0	-0.0	-0.0	107276.2265625	2106.236328125	-3061.03662109375
0.2235	-0.0	-0.0	-0.0	-2.4902584552764893	34.60548400878906	-394.6833801269531	11.243379592895508	-33.4587287902832	-397.5936279296875	-0.0	-0.0	-0.0	-0.0	-0.0	-0.0	107375.5859375	2303.357421875	-3144.890380859375
0.224	-0.0	-0.0	-0.0	-2.630648612976074	34.64131164550781	-396.79345703125	10.822715759277344	-33.335140228271484	-397.0452880859375	-0.0	-0.0	-0.0	-0.0	-0.0	-0.0	107813.4765625	2419.5302734375	-3306.1943359375
0.2245	-0.0	-0.0	-0.0	-3.1147944927215576	34.22607421875	-396.3278503417969	10.941699028015137	-33.304813385009766	-398.3224487304688	-0.0	-0.0	-0.0	-0.0	-0.0	-0.0	107746.7109375	2451.370361328125	-3360.30615234375
0.225	-0.0	-0.0	-0.0	-3.3146421909332275	33.95868682861328	-395.4470520019531	10.645294189453123	-33.36310577392578	-397.7133483886719	-0.0	-0.0	-0.0	-0.0	-0.0	-0.0	107623.1015625	2551.170654296875	-3382.60400390625
0.2255	-0.0	-0.0	-0.0	-3.851067304611206	34.05531311035156	-394.8551635742188	10.822715759277344	-33.539833068847656	-398.6720886230469	-0.0	-0.0	-0.0	-0.0	-0.0	-0.0	107831.609375	2411.30712890625	-3565.5244140625
0.226	-0.0	-0.0	-0.0	-3.382958173751831	33.728607177734375	-393.8252258300781	11.02912712097168	-33.304710388183594	-397.7424926757813	-0.0	-0.0	-0.0	-0.0	-0.0	-0.0	107966.6484375	2780.61474609375	-3441.64404296875
0.2265	-0.0	-0.0	-0.0	-3.784002542495728	34.20379638671875	-395.8853149414063	11.16270351409912	-33.186767578125	-398.96337890625	-0.0	-0.0	-0.0	-0.0	-0.0	-0.0	108197.34375	2803.046142578125	-3498.363525390625
0.227	-0.0	-0.0	-0.0	-4.274709224700928	33.512569427490234	-395.12054443359375	11.221923828125	-32.91455841064453	-397.7418823242188	-0.0	-0.0	-0.0	-0.0	-0.0	-0.0	108104.453125	2762.426025390625	-3426.572509765625
0.2275	-0.0	-0.0	-0.0	-5.233953952789307	34.30048751831055	-394.11962890625	11.155471801757812	-32.64237594604492	-399.22662353515625	-0.0	-0.0	-0.0	-0.0	-0.0	-0.0	108057.4140625	2986.97119140625	-3419.107421875
0.228	-0.0	-0.0	-0.0	-4.96647310256958	33.79507064819336	-394.3279418945313	10.985487937927246	-32.27388381958008	-397.9751892089844	-0.0	-0.0	-0.0	-0.0	-0.0	-0.0	107832.5703125	3117.614501953125	-3438.9638671875
0.2285	-0.0	-0.0	-0.0	-5.123171806335449	33.42218399047852	-395.0640563964844	11.18484592437744	-32.32573699951172	-397.36322021484375	-0.0	-0.0	-0.0	-0.0	-0.0	-0.0	108005.921875	3259.86865234375	-3448.594970703125
0.229	-0.0	-0.0	-0.0	-5.159683227539063	33.83327102661133	-391.8778381347656	10.41545867919922	-32.4879264831543	-397.3630981445313	-0.0	-0.0	-0.0	-0.0	-0.0	-0.0	107750.90625	3483.409423828125	-3434.056396484375
0.2295	-0.0	-0.0	-0.0	-5.516601085662842	33.580509185791016	-393.1178894042969	10.43693733215332	-32.4664306640625	-396.7783508300781	-0.0	-0.0	-0.0	-0.0	-0.0	-0.0	107886.8203125	3542.546875	-3592.58740234375
0.23	-0.0	-0.0	-0.0	-5.277795314788818	33.780426025390625	-391.8473205566406	10.259215354919434	-32.23741912841797	-396.9288635253906	-0.0	-0.0	-0.0	-0.0	-0.0	-0.0	107654.8984375	3960.37255859375	-3567.7841796875
0.2305	-0.0	-0.0	-0.0	-5.598783016204834	33.34907531738281	-392.08642578125	10.645294189453123	-31.9867000579834	-396.0505981445313	-0.0	-0.0	-0.0	-0.0	-0.0	-0.0	107155.03125	3839.923095703125	-3512.875732421875
0.231	-0.0	-0.0	-0.0	-6.0378265380859375	33.520145416259766	-392.1573791503906	10.038557052612305	-32.23033142089844	-396.1750183105469	-0.0	-0.0	-0.0	-0.0	-0.0	-0.0	107163.2578125	4115.89013671875	-3733.954833984375
0.2315	-0.0	-0.0	-0.0	-5.277588844299316	33.42390441894531	-389.5855407714844	10.173413276672363	-32.407012939453125	-396.6919860839844	-0.0	-0.0	-0.0	-0.0	-0.0	-0.0	107558.96875	4404.904296875	-3765.961181640625
0.232	-0.0	-0.0	-0.0	-5.427728176116943	33.33477020263672	-389.91064453125	9.417450904846191	-32.66497802734375	-395.2673950195313	-0.0	-0.0	-0.0	-0.0	-0.0	-0.0	107648.78125	4639.65234375	-3821.18408203125
